<?xml version="1.0" encoding="utf-8"?>
<!-- Generator: Adobe Illustrator 22.0.1, SVG Export Plug-In . SVG Version: 6.00 Build 0)  -->
<svg version="1.1" id="Layer_1" xmlns="http://www.w3.org/2000/svg" xmlns:xlink="http://www.w3.org/1999/xlink" x="0px" y="0px"
	 viewBox="0 0 767 163" style="enable-background:new 0 0 767 163;" xml:space="preserve">
<style type="text/css">
	.st0{fill:#FFFFFF;}
	.st1{fill:none;stroke:#FFFFFF;stroke-miterlimit:10;}
</style>
<g>
	<g>
		<path class="st0" d="M443.9,39.2V21.6c0-0.1,0-0.2,0.1-0.2h2.2c0.1,0,0.1,0,0.1,0.2v17.6c0,0.1,0,0.1-0.1,0.1H444
			C443.9,39.3,443.9,39.3,443.9,39.2z"/>
		<path class="st0" d="M449.6,39.2V21.6c0-0.1,0.1-0.2,0.2-0.2h2.5c0.1,0,0.2,0.1,0.2,0.2l8.8,13.8V23l0.3-1.4c0-0.1,0-0.2,0.2-0.2
			h1.7c0.1,0,0.2,0,0.2,0.2v17.6c0,0.1-0.1,0.2-0.2,0.2H461c-0.1,0-0.2-0.1-0.2-0.2L452,25.4v12.4l-0.3,1.4c0,0.1,0,0.2-0.2,0.2
			h-1.7C449.6,39.3,449.6,39.3,449.6,39.2z"/>
		<path class="st0" d="M466.8,39.2V21.6c0-0.1,0-0.2,0.1-0.2h2.2c0.1,0,0.1,0,0.1,0.2v17.6c0,0.1,0,0.1-0.1,0.1h-2.2
			C466.8,39.3,466.8,39.3,466.8,39.2z"/>
		<path class="st0" d="M477.2,39.2V23.4H472c-0.1,0-0.1,0-0.1-0.1v-1.7c0-0.1,0-0.2,0.1-0.2h12.9c0.1,0,0.1,0,0.1,0.2v1.7
			c0,0.1,0,0.1-0.1,0.1h-5.2v15.7c0,0.1,0,0.1-0.1,0.1h-2.2C477.2,39.3,477.2,39.3,477.2,39.2z"/>
		<path class="st0" d="M487.6,39.2V21.6c0-0.1,0-0.2,0.1-0.2h2.2c0.1,0,0.1,0,0.1,0.2v17.6c0,0.1,0,0.1-0.1,0.1h-2.2
			C487.6,39.3,487.6,39.3,487.6,39.2z"/>
		<path class="st0" d="M508.3,38.3l-0.1,0.9c0,0.1-0.1,0.1-0.2,0.1h-1.7c-0.1,0-0.1-0.1-0.2-0.1l-1.4-3.9h-8.4l-1.5,3.9
			c0,0.1-0.1,0.1-0.2,0.1H493c-0.1,0-0.1,0-0.2-0.1l-0.1-0.9l6.5-16.8c0-0.1,0.1-0.1,0.2-0.1h2.5c0.1,0,0.1,0,0.2,0.1L508.3,38.3z
			 M503.9,33.4l-3.4-9.2l-3.5,9.2H503.9z"/>
		<path class="st0" d="M512.4,39.2V23.4h-5.2c-0.1,0-0.1,0-0.1-0.1v-1.7c0-0.1,0-0.2,0.1-0.2H520c0.1,0,0.1,0,0.1,0.2v1.7
			c0,0.1,0,0.1-0.1,0.1h-5.2v15.7c0,0.1,0,0.1-0.1,0.1H512.4C512.4,39.3,512.4,39.3,512.4,39.2z"/>
		<path class="st0" d="M522.8,39.2V21.6c0-0.1,0-0.2,0.1-0.2h2.2c0.1,0,0.1,0,0.1,0.2v17.6c0,0.1,0,0.1-0.1,0.1L522.8,39.2
			C522.8,39.3,522.8,39.3,522.8,39.2z"/>
		<path class="st0" d="M533.8,39.2l-6-16.7l0.1-0.9c0-0.1,0.1-0.2,0.2-0.2h1.9c0.1,0,0.1,0.1,0.2,0.2l5.1,14.7l5.2-14.7
			c0-0.1,0.1-0.2,0.2-0.2h1.8c0.1,0,0.1,0.1,0.2,0.2l0.1,0.8l-6.1,16.7c0,0.1-0.1,0.2-0.2,0.2H534C533.8,39.3,533.8,39.3,533.8,39.2
			z"/>
		<path class="st0" d="M545.1,39.2V21.6c0-0.1,0.1-0.2,0.2-0.2h11.2c0.1,0,0.2,0,0.2,0.2v1.7c0,0.1,0,0.1-0.2,0.1h-9v6h8.2
			c0.1,0,0.2,0,0.2,0.1v1.7c0,0.1,0,0.2-0.2,0.2h-8.2v5.9h9.3c0.1,0,0.1,0,0.1,0.1v1.7c0,0.1,0,0.1-0.1,0.1h-11.5
			C545.1,39.3,545.1,39.3,545.1,39.2z"/>
		<path class="st0" d="M566.5,39.2V21.6c0-0.1,0-0.2,0.1-0.2H578c0.1,0,0.2,0,0.2,0.2v1.7c0,0.1,0,0.1-0.1,0.1H569v6.2h8.3
			c0.2,0,0.2,0,0.2,0.2v1.7c0,0.1,0,0.1-0.2,0.1H569v7.6c0,0.1,0,0.1-0.1,0.1h-2.2C566.5,39.3,566.5,39.3,566.5,39.2z"/>
		<path class="st0" d="M579.6,30.4c0-5.2,2.3-9.3,8.2-9.3s8.2,4.1,8.2,9.3s-2.3,9.3-8.2,9.3S579.6,35.6,579.6,30.4z M593.6,30.4
			c0-4.2-1.6-7.3-5.7-7.3c-4.2,0-5.8,3.1-5.8,7.3s1.6,7.2,5.8,7.2C592,37.7,593.6,34.6,593.6,30.4z"/>
		<path class="st0" d="M608,31.9l4.1,6.4l-0.2,0.8c0,0.1-0.1,0.1-0.1,0.1h-1.6c-0.1,0-0.1,0-0.2-0.1l-4.5-7.1h-4.2v7.1
			c0,0.1-0.1,0.2-0.2,0.2H599c-0.1,0-0.2-0.1-0.2-0.2V21.6c0-0.1,0-0.2,0.2-0.2h7.2c4.6,0,6.1,2.2,6.1,5.3
			C612.4,29.3,611.2,31.4,608,31.9z M601.3,30.1h5c2.9,0,3.9-1.2,3.9-3.3c0-2-0.9-3.3-3.9-3.3h-5V30.1z"/>
	</g>
	<g>
		<path class="st0" d="M459.4,67.2c0.1,0.1,0.1,0.1,0,0.3l-1.2,1.1c-0.1,0.1-0.2,0.1-0.3,0l-2.2-2.5c-1.1,0.5-2.4,0.8-4,0.9
			c-5.9,0.1-8.2-4-8.2-9.1s2.3-9.2,8.2-9.2s8.2,4.1,8.2,9.2c0,2.9-0.8,5.4-2.5,7L459.4,67.2z M454.2,64.4L452,62
			c-0.1-0.1-0.1-0.2,0-0.3l1.2-1.1c0.1-0.1,0.2-0.1,0.3,0l2.3,2.6c1.1-1.2,1.6-3.1,1.6-5.4c0-4.1-1.6-7.1-5.7-7.1
			c-4.2,0-5.8,3.1-5.8,7.1s1.6,7,5.8,7C452.6,64.8,453.5,64.7,454.2,64.4z"/>
		<path class="st0" d="M462.5,60.5V49.1c0-0.1,0-0.2,0.1-0.2h2c0.1,0,0.1,0,0.2,0.2l0.2,1.4v10c0,3.1,1.8,4.5,4.5,4.5
			s4.4-1.4,4.4-4.5v-10l0.3-1.4c0-0.1,0.1-0.2,0.2-0.2h1.9c0.1,0,0.2,0,0.2,0.2v11.4c0,4.5-2.8,6.7-7,6.7S462.5,65.1,462.5,60.5z"/>
		<path class="st0" d="M494.1,65.9l-0.1,0.9c0,0.1-0.1,0.1-0.2,0.1h-1.7c-0.1,0-0.1-0.1-0.2-0.1l-1.4-3.9H482l-1.5,3.9
			c0,0.1-0.1,0.1-0.2,0.1h-1.6c-0.1,0-0.1,0-0.2-0.1l-0.1-0.9l6.5-16.8c0-0.1,0.1-0.1,0.2-0.1h2.5c0.1,0,0.1,0,0.2,0.1L494.1,65.9z
			 M489.7,60.9l-3.4-9.2l-3.5,9.2H489.7z"/>
		<path class="st0" d="M496.7,66.7V49.1c0-0.1,0.1-0.2,0.2-0.2h2.5c0.1,0,0.2,0.1,0.2,0.2l8.8,13.8V50.5l0.3-1.4
			c0-0.1,0-0.2,0.2-0.2h1.7c0.1,0,0.2,0,0.2,0.2v17.6c0,0.1-0.1,0.2-0.2,0.2H508c-0.1,0-0.2-0.1-0.2-0.2L499,52.9v12.4l-0.3,1.4
			c0,0.1,0,0.2-0.2,0.2h-1.7C496.8,66.9,496.7,66.8,496.7,66.7z"/>
		<path class="st0" d="M518.6,66.7V51h-5.2c-0.1,0-0.1,0-0.1-0.1v-1.7c0-0.1,0-0.2,0.1-0.2h12.9c0.1,0,0.1,0,0.1,0.2v1.7
			c0,0.1,0,0.1-0.1,0.1h-5.2v15.7c0,0.1,0,0.1-0.1,0.1h-2.2C518.6,66.9,518.6,66.9,518.6,66.7z"/>
		<path class="st0" d="M529.1,66.7V49.1c0-0.1,0-0.2,0.1-0.2h2.2c0.1,0,0.1,0,0.1,0.2v17.6c0,0.1,0,0.1-0.1,0.1L529.1,66.7
			C529.1,66.9,529.1,66.8,529.1,66.7z"/>
		<path class="st0" d="M539.5,66.7V51h-5.2c-0.1,0-0.1,0-0.1-0.1v-1.7c0-0.1,0-0.2,0.1-0.2h12.9c0.1,0,0.1,0,0.1,0.2v1.7
			c0,0.1,0,0.1-0.1,0.1H542v15.7c0,0.1,0,0.1-0.1,0.1h-2.2C539.5,66.9,539.5,66.9,539.5,66.7z"/>
		<path class="st0" d="M561.6,65.9l-0.1,0.9c0,0.1-0.1,0.1-0.2,0.1h-1.7c-0.1,0-0.1-0.1-0.2-0.1l-1.4-3.9h-8.4l-1.5,3.9
			c0,0.1-0.1,0.1-0.2,0.1h-1.6c-0.1,0-0.1,0-0.2-0.1l-0.1-0.9l6.5-16.8c0-0.1,0.1-0.1,0.2-0.1h2.5c0.1,0,0.1,0,0.2,0.1L561.6,65.9z
			 M557.2,60.9l-3.4-9.2l-3.5,9.2H557.2z"/>
		<path class="st0" d="M565.6,66.7V51h-5.2c-0.1,0-0.1,0-0.1-0.1v-1.7c0-0.1,0-0.2,0.1-0.2h12.9c0.1,0,0.1,0,0.1,0.2v1.7
			c0,0.1,0,0.1-0.1,0.1h-5.2v15.7c0,0.1,0,0.1-0.1,0.1h-2.2C565.7,66.9,565.6,66.9,565.6,66.7z"/>
		<path class="st0" d="M576.1,66.7V49.1c0-0.1,0-0.2,0.1-0.2h2.2c0.1,0,0.1,0,0.1,0.2v17.6c0,0.1,0,0.1-0.1,0.1L576.1,66.7
			C576.1,66.9,576.1,66.8,576.1,66.7z"/>
		<path class="st0" d="M587.1,66.7l-6-16.7l0.1-0.9c0-0.1,0.1-0.2,0.2-0.2h1.9c0.1,0,0.1,0.1,0.2,0.2l5.1,14.7l5.2-14.7
			c0-0.1,0.1-0.2,0.2-0.2h1.8c0.1,0,0.1,0.1,0.2,0.2V50l-6.1,16.7c0,0.1-0.1,0.2-0.2,0.2h-2.5C587.1,66.9,587.1,66.8,587.1,66.7z"/>
		<path class="st0" d="M598.4,66.7V49.1c0-0.1,0.1-0.2,0.2-0.2h11.2c0.1,0,0.2,0,0.2,0.2v1.7c0,0.1,0,0.1-0.2,0.1h-9v6h8.2
			c0.1,0,0.2,0,0.2,0.1v1.7c0,0.1,0,0.2-0.2,0.2h-8.2v5.9h9.3c0.1,0,0.1,0,0.1,0.1v1.7c0,0.1,0,0.1-0.1,0.1h-11.5
			C598.4,66.9,598.4,66.8,598.4,66.7z"/>
		<path class="st0" d="M619.8,66.7V49.1c0-0.1,0-0.2,0.2-0.2h7c4.6,0,6.1,2.3,6.1,5.3s-1.5,5.3-6.1,5.3h-4.7v7.1
			c0,0.1-0.1,0.2-0.2,0.2H620C619.9,66.9,619.8,66.8,619.8,66.7z M626.9,57.6c2.9,0,3.9-1.2,3.9-3.3c0-2-0.9-3.3-3.9-3.3h-4.7v6.7
			L626.9,57.6L626.9,57.6z"/>
		<path class="st0" d="M645.4,59.5l4.1,6.4l-0.2,0.8c0,0.1-0.1,0.1-0.1,0.1h-1.6c-0.1,0-0.1,0-0.2-0.1l-4.5-7.1h-4.2v7.1
			c0,0.1-0.1,0.2-0.2,0.2h-2.1c-0.1,0-0.2-0.1-0.2-0.2V49.1c0-0.1,0-0.2,0.2-0.2h7.2c4.6,0,6.1,2.2,6.1,5.3
			C649.8,56.8,648.6,58.9,645.4,59.5z M638.7,57.6h5c2.9,0,3.9-1.2,3.9-3.3c0-2-0.9-3.3-3.9-3.3h-5V57.6z"/>
		<path class="st0" d="M652.6,66.7V49.1c0-0.1,0.1-0.2,0.2-0.2H664c0.1,0,0.2,0,0.2,0.2v1.7c0,0.1,0,0.1-0.2,0.1h-9v6h8.2
			c0.1,0,0.2,0,0.2,0.1v1.7c0,0.1,0,0.2-0.2,0.2H655v5.9h9.3c0.1,0,0.1,0,0.1,0.1v1.7c0,0.1,0,0.1-0.1,0.1h-11.5
			C652.7,66.9,652.6,66.8,652.6,66.7z"/>
		<path class="st0" d="M667.3,66.7V49.1c0-0.1,0.1-0.2,0.2-0.2h6c5.9,0,8.3,3.8,8.3,9c0,5.1-2.4,8.9-8.3,8.9h-6
			C667.4,66.9,667.3,66.8,667.3,66.7z M673.4,64.9c4.2,0,5.9-2.8,5.9-6.9s-1.7-7-5.9-7h-3.8v13.9H673.4z"/>
		<path class="st0" d="M684.6,66.7V49.1c0-0.1,0-0.2,0.1-0.2h2.2c0.1,0,0.1,0,0.1,0.2v17.6c0,0.1,0,0.1-0.1,0.1L684.6,66.7
			C684.6,66.9,684.6,66.8,684.6,66.7z"/>
		<path class="st0" d="M689.9,57.9c0-5.6,2.8-9.3,8.2-9.3c4.6,0,6.5,2.4,7.2,4.1l-0.3,0.9c0,0.1-0.1,0.2-0.2,0.2h-1.6
			c-0.1,0-0.1-0.1-0.2-0.1c-0.4-1.1-1.6-2.8-4.9-2.8c-4.1,0-5.8,2.7-5.8,7.2s1.7,7.1,5.8,7.1c3.3,0,4.4-1.8,4.9-2.8
			c0-0.1,0.1-0.1,0.2-0.1h1.6c0.1,0,0.1,0,0.2,0.1l0.3,0.9c-0.6,1.8-2.5,4.1-7.2,4.1C692.7,67.2,689.9,63.5,689.9,57.9z"/>
		<path class="st0" d="M712,66.7V51h-5.2c-0.1,0-0.1,0-0.1-0.1v-1.7c0-0.1,0-0.2,0.1-0.2h12.9c0.1,0,0.1,0,0.1,0.2v1.7
			c0,0.1,0,0.1-0.1,0.1h-5.2v15.7c0,0.1,0,0.1-0.1,0.1h-2.2C712,66.9,712,66.9,712,66.7z"/>
		<path class="st0" d="M722.4,66.7V49.1c0-0.1,0-0.2,0.1-0.2h2.2c0.1,0,0.1,0,0.1,0.2v17.6c0,0.1,0,0.1-0.1,0.1L722.4,66.7
			C722.5,66.9,722.4,66.8,722.4,66.7z"/>
		<path class="st0" d="M727.7,58c0-5.2,2.3-9.3,8.2-9.3s8.2,4.1,8.2,9.3c0,5.2-2.3,9.3-8.2,9.3S727.7,63.2,727.7,58z M741.6,58
			c0-4.2-1.6-7.3-5.7-7.3c-4.2,0-5.8,3.1-5.8,7.3c0,4.2,1.6,7.2,5.8,7.2C740,65.2,741.6,62.1,741.6,58z"/>
		<path class="st0" d="M746.9,66.7V49.1c0-0.1,0.1-0.2,0.2-0.2h2.5c0.1,0,0.2,0.1,0.2,0.2l8.8,13.8V50.5l0.3-1.4
			c0-0.1,0-0.2,0.2-0.2h1.7c0.1,0,0.2,0,0.2,0.2v17.6c0,0.1-0.1,0.2-0.2,0.2h-2.5c-0.1,0-0.2-0.1-0.2-0.2l-8.8-13.8v12.4l-0.3,1.4
			c0,0.1,0,0.2-0.2,0.2H747C746.9,66.9,746.9,66.8,746.9,66.7z"/>
	</g>
</g>
<line class="st1" x1="421.3" y1="4" x2="421.3" y2="90"/>
<g>
	<g>
		<path class="st0" d="M25.3,66.4h6.4l7.6-23l7.6,23h6.4l14.9-45.1h-3.8L52.5,58L39.9,21.3h-7.8l5.4,16.4L30.8,58L18.3,21.3H6.7v1.5
			c4.6,0.8,4.5,1,5.8,4.7L25.3,66.4z"/>
		<path class="st0" d="M160.2,63.3c-4.1,0-4.1,0-4.1-5v-37h-7.9v45.1h24.2v-3.2h-12.2V63.3z"/>
		<path class="st0" d="M130.1,45.6c6.5-0.9,10.2-4.6,10.2-12.2c0-12-12.6-12-17.2-12h-13.4v45.1h7.9v-42h5.1c5.1,0,8.9,2,8.9,9.2
			c0,8.2-5.5,9.8-9.5,9.8h-1l13,22.9h8.7L130.1,45.6z"/>
		<path class="st0" d="M189.2,63.3c-4.2,0-4.2-1.8-4.2-4.4V24.5h5c11.4,0,12.7,7.6,12.7,19.4C202.7,57.5,200.3,63.3,189.2,63.3
			 M191.1,21.3H177v45.1h12.1c11.9,0,22-1.5,22-22.7C211.2,24.8,202.7,21.3,191.1,21.3"/>
		<path class="st0" d="M86,64.7c-9.1,0-9.8-11.5-9.8-20.8s0.7-20.8,9.8-20.8c8.9,0,9.5,11.8,9.5,20.8C95.4,52.9,94.9,64.7,86,64.7
			 M86,19.8c-14.4,0-18.4,9.4-18.4,24.3S71.6,68,86,68c13.8,0,18-9,18-23.9C104,29.1,99.8,19.8,86,19.8"/>
		<path class="st0" d="M285.4,21.3v29.3c0,6.8-0.3,14.2-10.3,14.2c-8.7,0-8.7-7.4-8.7-14.2V21.3h-7.9v31.1
			c0,12.2,5.9,15.6,16.6,15.6c14.4,0,14.7-9.9,14.7-18.9V21.3H285.4z"/>
	</g>
	<polygon class="st0" points="370.4,21.3 370.4,24.5 382.9,24.5 382.9,66.4 390.9,66.4 390.9,24.5 403.3,24.5 403.3,21.3 	"/>
	<polygon class="st0" points="363.4,21.3 363.4,57.8 363.3,57.8 344.1,21.3 336.1,21.3 336.1,66.4 339.9,66.4 339.9,28.3 
		340.1,28.3 360.1,66.4 367.2,66.4 367.2,21.3 	"/>
	<g>
		<path class="st0" d="M316.3,58l-6.6-19.3h13L316.3,58z M328.4,21.3l-4.7,14.2h-15.1l-4.9-14.2h-11.6v1.5c4.6,0.8,4.5,1,5.8,4.7
			l12.8,38.9h6.4L332,21.3C332,21.3,328.4,21.3,328.4,21.3z"/>
		<path class="st0" d="M252.7,44.1c0-14.9-4.2-24.3-18-24.3c-14.4,0-18.4,9.4-18.4,24.3s4,23.9,18.4,23.9h20v-1.5
			c-4.6-0.8-8-1.6-5.9-4.7C251.7,57.7,252.7,51.6,252.7,44.1 M234.7,64.7c-9.1,0-9.8-11.5-9.8-20.8s0.7-20.8,9.8-20.8
			c8.9,0,9.5,11.8,9.5,20.8C244.1,52.9,243.6,64.7,234.7,64.7"/>
		<path class="st0" d="M399.1,61.6v1.1h0.9c0.4,0,0.7-0.2,0.7-0.6s-0.2-0.6-0.6-0.6L399.1,61.6L399.1,61.6z M399.8,63.4h-0.7v1.8
			h-0.7V61h1.7c0.7,0,1.2,0.5,1.2,1.2c0,0.5-0.3,1-0.8,1.2l1,1.9h-0.8L399.8,63.4z M399.7,60c-1.6,0-2.9,1.3-2.9,3s1.3,3,2.9,3
			s2.9-1.3,2.9-3S401.4,60,399.7,60 M399.7,66.6c-2,0-3.6-1.5-3.6-3.6s1.6-3.7,3.6-3.7s3.6,1.6,3.6,3.7
			C403.3,65.1,401.8,66.6,399.7,66.6"/>
	</g>
</g>
<g>
	<path class="st0" d="M176.8,153.6h-2c-0.1,0-0.2,0.1-0.3,0.2c-0.2,0.2-0.8,1.1-2.6,1.1c-2.1,0-3-1.1-3.2-3.2h8
		c0.2,0,0.2-0.1,0.3-0.2l0.4-1.3c0-3.1-1.7-6.4-6.1-6.4c-4.2,0-6.1,3.2-6.1,7.1c0,3.9,2,7.1,6.8,7.1c3.9,0,5.1-2.2,5.4-2.9l-0.4-1.3
		C177,153.6,176.9,153.6,176.8,153.6 M171.3,146.8c1.5,0,2.3,1,2.4,2.4h-4.8C169,147.8,169.8,146.8,171.3,146.8 M164.3,148.9v8.4
		c0,0.2-0.1,0.3-0.3,0.3h-3c-0.2,0-0.3-0.1-0.3-0.3v-8.2c0-1.3-0.5-2.3-2-2.3c-1.7,0-2.9,0.9-2.9,3.2v2.5l0,0v4.8
		c0,0.2-0.1,0.3-0.3,0.3h-3c-0.2,0-0.3-0.1-0.3-0.3v-12.9c0-0.2,0.1-0.3,0.3-0.3h2.4c0.2,0,0.2,0.1,0.3,0.2l0.4,1.3
		c0.7-1.1,2-1.9,3.9-1.9C162.4,143.8,164.3,145.5,164.3,148.9z M147.4,140.4c0-0.2,0.1-0.3,0.3-0.3h3c0.2,0,0.3,0.1,0.3,0.3v2.5
		c0,0.2-0.1,0.3-0.3,0.3h-3c-0.2,0-0.3-0.1-0.3-0.3V140.4z M147.4,157.3c0,0.2,0.1,0.3,0.3,0.3h3c0.2,0,0.3-0.1,0.3-0.3v-12.9
		c0-0.2-0.1-0.3-0.3-0.3h-3c-0.2,0-0.3,0.1-0.3,0.3V157.3z M138,150.9c0,2.9,1.1,4,3.2,4c1.5,0,2.2-0.9,2.3-1.1
		c0.1-0.1,0.2-0.2,0.3-0.2h2c0.2,0,0.2,0.1,0.3,0.2l0.4,1.3c-0.4,0.8-1.5,2.9-5.2,2.9c-4.7,0-6.8-2.8-6.8-7.1s2.1-7.1,6.8-7.1
		c3.6,0,4.8,2,5.2,2.9l-0.4,1.3c-0.1,0.2-0.1,0.2-0.3,0.2h-2c-0.1,0-0.2-0.1-0.3-0.2c-0.2-0.2-0.8-1.1-2.3-1.1
		C139.1,146.8,138,148,138,150.9 M130,140.4c0-0.2,0.1-0.3,0.3-0.3h3c0.2,0,0.3,0.1,0.3,0.3v2.5c0,0.2-0.1,0.3-0.3,0.3h-3
		c-0.2,0-0.3-0.1-0.3-0.3V140.4z M130,157.3c0,0.2,0.1,0.3,0.3,0.3h3c0.2,0,0.3-0.1,0.3-0.3v-12.9c0-0.2-0.1-0.3-0.3-0.3h-3
		c-0.2,0-0.3,0.1-0.3,0.3V157.3z M128.4,140.1h-3c-0.2,0-0.3,0.1-0.3,0.3v5c-0.9-0.9-2.2-1.5-3.8-1.5c-3.9,0-5.9,3.1-5.9,7.1
		s1.9,7.1,5.9,7.1c1.7,0,3-0.7,4-1.8l0.4,1.2c0.1,0.2,0.1,0.2,0.3,0.2h2.4c0.2,0,0.3-0.1,0.3-0.3v-16.9
		C128.7,140.2,128.6,140.1,128.4,140.1z M122.1,154.9c-2.1,0-3.1-1.5-3.1-4s0.9-4,3.1-4c2,0,3.1,1.5,3.1,4l0,0
		C125.2,153.4,124.1,154.9,122.1,154.9z M114.1,153.6h-2c-0.1,0-0.2,0.1-0.3,0.2c-0.2,0.2-0.8,1.1-2.6,1.1c-2.1,0-3-1.1-3.2-3.2h8
		c0.2,0,0.2-0.1,0.3-0.2l0.4-1.3c0-3.1-1.7-6.4-6.1-6.4c-4.2,0-6.1,3.2-6.1,7.1c0,3.9,2,7.1,6.8,7.1c3.9,0,5.1-2.2,5.4-2.9l-0.4-1.3
		C114.3,153.6,114.2,153.6,114.1,153.6 M108.6,146.8c1.5,0,2.3,1,2.4,2.4h-4.8C106.4,147.8,107.1,146.8,108.6,146.8 M101.4,140.4
		v16.9c0,0.2-0.1,0.3-0.3,0.3h-2.7c-0.2,0-0.2-0.1-0.3-0.2l-0.4-1.3v-8.5l-4,9.7c-0.1,0.2-0.1,0.2-0.3,0.2h-1.3l0,0l0,0h-1.3
		c-0.2,0-0.3-0.1-0.3-0.2l-4-9.7v8.5l-0.4,1.3c-0.1,0.2-0.1,0.2-0.3,0.2h-2.7c-0.2,0-0.3-0.1-0.3-0.3v-16.9c0-0.2,0.1-0.3,0.3-0.3
		h2.3l0,0h1.3c0.2,0,0.3,0.1,0.3,0.2l5.1,12.3l5.1-12.3c0.1-0.2,0.1-0.2,0.3-0.2h1.3l0,0h2.3C101.3,140.1,101.4,140.2,101.4,140.4z"
		/>
	<path class="st0" d="M208.3,136.8c0,0.2-0.1,0.3-0.3,0.3h-2.6c-0.2,0-0.2-0.1-0.3-0.2l-0.4-1.3v-15.7c0-0.2,0.1-0.3,0.3-0.3h3
		c0.2,0,0.3,0.1,0.3,0.3V136.8z M203.5,119.8c0-0.2-0.1-0.3-0.3-0.3h-3c-0.2,0-0.3,0.1-0.3,0.3v15.7l0.4,1.3
		c0.1,0.2,0.1,0.2,0.3,0.2h2.6c0.2,0,0.3-0.1,0.3-0.3V119.8z M198.6,133.3l0.4,1.3c-0.3,0.7-1.5,2.9-5.4,2.9c-4.8,0-6.8-3.1-6.8-7.1
		c0-3.9,1.9-7.1,6.1-7.1c4.3,0,6.1,3.4,6.1,6.4l-0.4,1.3c-0.1,0.2-0.1,0.2-0.3,0.2h-8c0.2,2.1,1.1,3.2,3.2,3.2
		c1.7,0,2.4-0.9,2.6-1.1c0.1-0.1,0.2-0.2,0.3-0.2h2C198.5,133,198.6,133.1,198.6,133.3z M190.5,128.6h4.8c-0.1-1.4-0.9-2.4-2.4-2.4
		C191.4,126.3,190.6,127.3,190.5,128.6z M181.1,123.3c-1.9,0-3.2,0.8-3.9,1.9l-0.4-1.3c-0.1-0.2-0.1-0.2-0.3-0.2h-2.4
		c-0.2,0-0.3,0.1-0.3,0.3v12.9c0,0.2,0.1,0.3,0.3,0.3h3c0.2,0,0.3-0.1,0.3-0.3V132v-2.5c0-2.3,1.2-3.2,2.9-3.2c1.5,0,2,1,2,2.3v8.2
		c0,0.2,0.1,0.3,0.3,0.3h3c0.2,0,0.3-0.1,0.3-0.3v-8.4C185.8,124.9,183.9,123.3,181.1,123.3z M172.5,123.6h-1.2
		c-1.6,0-2.8,0.5-3.6,1.5l-0.4-1.3c-0.1-0.2-0.1-0.2-0.3-0.2h-2.4c-0.2,0-0.3,0.1-0.3,0.3v12.9c0,0.2,0.1,0.3,0.3,0.3h3
		c0.2,0,0.3-0.1,0.3-0.3v-4.4V130c0-2.3,1.3-3.2,3-3.2h1.6c0.2,0,0.3-0.1,0.3-0.3v-2.7C172.7,123.7,172.6,123.6,172.5,123.6z
		 M163.4,130.3c0,4-1.6,7.1-6.3,7.1s-6.3-3.1-6.3-7.1s1.6-7.1,6.3-7.1C161.8,123.3,163.4,126.4,163.4,130.3z M159.9,130.3
		c0-2.5-0.8-4-2.8-4s-2.8,1.5-2.8,4s0.8,4,2.8,4C159.1,134.4,159.9,132.9,159.9,130.3z M134.4,128.3c0,5.7,3.1,9.1,8.3,9.1
		c4.9,0,6.8-2.5,7.4-4.3l-0.4-1.3c-0.1-0.2-0.1-0.2-0.3-0.2H147c-0.2,0-0.2,0.1-0.3,0.2c-0.3,0.6-1,2.3-3.9,2.3
		c-3.2,0-4.7-1.8-4.7-5.8s1.5-5.8,4.7-5.8c2.9,0,3.6,1.7,3.9,2.3c0.1,0.1,0.1,0.2,0.3,0.2h2.4c0.2,0,0.2-0.1,0.3-0.2l0.4-1.3
		c-0.6-1.8-2.4-4.3-7.4-4.3C137.6,119.2,134.4,122.6,134.4,128.3 M129.2,119.8c0-0.2-0.1-0.3-0.3-0.3h-3c-0.2,0-0.3,0.1-0.3,0.3
		v15.7l0.4,1.3c0.1,0.2,0.1,0.2,0.3,0.2h2.6c0.2,0,0.3-0.1,0.3-0.3V119.8z M124.4,119.8c0-0.2-0.1-0.3-0.3-0.3h-3
		c-0.2,0-0.3,0.1-0.3,0.3v15.7l0.4,1.3c0.1,0.2,0.1,0.2,0.3,0.2h2.6c0.2,0,0.3-0.1,0.3-0.3V119.8z M116.1,136.8
		c0,0.2,0.1,0.3,0.3,0.3h3c0.2,0,0.3-0.1,0.3-0.3v-12.9c0-0.2-0.1-0.3-0.3-0.3h-3c-0.2,0-0.3,0.1-0.3,0.3V136.8z M116.1,119.8
		c0-0.2,0.1-0.3,0.3-0.3h3c0.2,0,0.3,0.1,0.3,0.3v2.5c0,0.2-0.1,0.3-0.3,0.3h-3c-0.2,0-0.3-0.1-0.3-0.3V119.8z M114.6,133.3l0.4,1.3
		c-0.3,0.7-1.5,2.9-5.4,2.9c-4.8,0-6.8-3.1-6.8-7.1c0-3.9,1.9-7.1,6.1-7.1c4.3,0,6.1,3.4,6.1,6.4l-0.4,1.3c-0.1,0.2-0.1,0.2-0.3,0.2
		h-8c0.2,2.1,1.1,3.2,3.2,3.2c1.7,0,2.4-0.9,2.6-1.1c0.1-0.1,0.2-0.2,0.3-0.2h2C114.5,133,114.6,133.1,114.6,133.3z M106.5,128.6
		h4.8c-0.1-1.4-0.9-2.4-2.4-2.4C107.4,126.3,106.6,127.3,106.5,128.6z M103.5,119.8c0-0.2-0.1-0.2-0.3-0.2h-2.8
		c-0.2,0-0.2,0.1-0.3,0.2l-2.7,11.5L94,119.8c0-0.1-0.1-0.2-0.3-0.2h-1.8h-1.8c-0.2,0-0.2,0.1-0.3,0.2l-3.4,11.5L84,119.8
		c0-0.1-0.1-0.2-0.3-0.2H81c-0.2,0-0.3,0.1-0.3,0.2l-0.2,1.3l4,15.7c0,0.1,0.1,0.2,0.3,0.2h3.6c0.2,0,0.2-0.1,0.3-0.2l3.5-11.9
		l3.5,11.9c0,0.1,0.1,0.2,0.3,0.2h3.6c0.2,0,0.2-0.1,0.3-0.2l4-15.7L103.5,119.8z"/>
	<path class="st0" d="M51.6,145v-0.5c0.1,0,0.6,0,1,0h0.2c0.2,0,0.4,0,0.6-0.1h0.4c0.1,0,0.2,0,0.2,0v0.5c-0.1,0-0.1,0-0.2,0h-0.4
		c-0.3,0-0.5,0.1-0.7,0.1h-0.2C52.2,145,51.7,145,51.6,145 M51.6,143.6c0.1,0,0.6,0,1,0h0.2c0.2,0,0.4,0,0.6,0c0.1,0,0.3,0,0.4,0
		c0.1,0,0.1,0,0.2,0v-0.5c-0.1,0-0.2,0-0.2,0c-0.1,0-0.3,0-0.4,0c-0.2,0-0.4,0-0.6,0h-0.2c-0.4,0-0.8,0-1,0V143.6 M51.6,142.1
		c0.1,0,0.4,0,0.6,0h0.5c0.2,0,0.4,0,0.7-0.1h0.4c0.1,0,0.1,0,0.2,0v-0.5c-0.1,0-0.2,0-0.3,0h-0.4c-0.2,0-0.4,0-0.6,0.1h-0.6
		c-0.3,0-0.5,0-0.6,0L51.6,142.1 M52.7,140.6c0.2,0,0.4,0,0.7-0.1h0.4c0.1,0,0.1,0,0.2,0V140c-0.1,0-0.2,0-0.2,0h-0.4
		c-0.2,0-0.4,0-0.6,0.1h-1.2v0.5H52.7z M58.8,145v-0.5c-0.1,0-0.6,0-1,0h-0.2c-0.2,0-0.4,0-0.6-0.1h-0.4c-0.1,0-0.2,0-0.2,0v0.5
		c0.1,0,0.1,0,0.2,0H57c0.3,0,0.5,0.1,0.7,0.1h0.2C58.2,145,58.7,145,58.8,145 M58.8,143.6v-0.5c-0.1,0-0.6,0-1,0h-0.2
		c-0.2,0-0.4,0-0.6,0c-0.1,0-0.3,0-0.4,0s-0.2,0-0.2,0v0.5c0.1,0,0.1,0,0.2,0c0.2,0,0.3,0,0.4,0c0.2,0,0.4,0,0.6,0h0.2
		C58.2,143.5,58.7,143.6,58.8,143.6 M58.8,142.1v-0.5c-0.1,0-0.3,0-0.6,0h-0.6c-0.2,0-0.4,0-0.6-0.1h-0.4c-0.1,0-0.2,0-0.3,0v0.5
		c0.1,0,0.1,0,0.2,0h0.4c0.3,0,0.5,0.1,0.7,0.1h0.5C58.5,142.1,58.7,142.1,58.8,142.1 M58.8,140.6v-0.5h-1.2c-0.2,0-0.4,0-0.6-0.1
		h-0.4c-0.1,0-0.2,0-0.2,0v0.5c0.1,0,0.1,0,0.2,0H57c0.3,0,0.5,0.1,0.7,0.1H58.8z M62.2,130.4V130h-5.3v0.4c0,0.9,0,3.1,0,3.2
		c0,0.4,0.3,0.8,0.8,1.1c0.6,0.4,1.6,1,1.6,1l0.2,0.1l0.2-0.1c0,0,1.1-0.6,1.7-1c0.5-0.3,0.8-0.7,0.8-1.1
		C62.2,133.5,62.2,132.4,62.2,130.4z M57.6,130.8h3.9v0.6l0,0v1.1l-1.9-1.4l0,0l0,0l-1.9,1.4v-1.1L57.6,130.8L57.6,130.8z
		 M61.5,133.6c0,0.2-0.2,0.3-0.4,0.5c-0.4,0.3-1,0.6-1.4,0.9l0,0l0,0c-0.2-0.1-0.9-0.5-1.4-0.9c-0.3-0.2-0.5-0.4-0.5-0.5l0,0v-0.3
		l1.9-1.4l1.9,1.4L61.5,133.6L61.5,133.6z M53.6,130.4V130h-5.3v0.4c0,0.9,0,3.1,0,3.2c0,0.4,0.3,0.8,0.8,1.1c0.6,0.4,1.6,1,1.6,1
		l0.2,0.1l0.2-0.1c0,0,1.1-0.6,1.7-1c0.5-0.3,0.8-0.7,0.8-1.1C53.6,133.5,53.6,132.4,53.6,130.4z M52.9,130.8v1H49v-1H52.9z
		 M52.9,133.6c0,0.2-0.2,0.3-0.4,0.5c-0.4,0.3-1,0.6-1.4,0.9l0,0l0,0c-0.2-0.1-0.9-0.5-1.4-0.9c-0.3-0.2-0.5-0.4-0.5-0.5
		s0-0.4,0-0.9v-0.2h3.9l0,0C52.9,132.9,52.9,133.5,52.9,133.6z M64.6,128.4H45.7v12.7c0,7.1,8.9,11.2,9.3,11.4l0.2,0.1l0.2-0.1
		c0.4-0.2,9.2-4.4,9.2-11.2V128.4z M46.7,129.3h17v7h-17L46.7,129.3z M54.6,139c0.1,0,0.1,0,0.2,0.1v7.1l0,0
		c-0.2-0.1-0.3-0.1-0.5-0.1c-0.5,0-0.9,0-1.4,0.1c-0.4,0-0.9,0.1-1.5,0.1c-0.1,0-0.3,0-0.4,0c-0.1,0-0.2,0-0.3,0h-0.1v-7h0.3
		c0.2,0,0.5,0,0.9,0s0.8-0.1,1.2-0.1c0.2,0,0.5-0.1,0.8-0.1c0.1,0,0.2,0,0.3,0C54.3,138.9,54.6,139,54.6,139L54.6,139L54.6,139z
		 M55.6,139.1c0.1,0,0.1-0.1,0.2-0.1c0,0,0.3-0.1,0.6-0.1c0.1,0,0.2,0,0.3,0c0.3,0,0.5,0.1,0.8,0.1l0,0c0.4,0,0.8,0.1,1.2,0.1
		c0.3,0,0.6,0,0.8,0h0.1c0,0,0,0,0.1,0h0.1v7h-0.1c-0.1,0-0.2,0-0.3,0c-0.1,0-0.2,0-0.4,0c-0.6,0-1.1-0.1-1.5-0.1s-0.8-0.1-1.4-0.1
		l0,0c-0.2,0-0.3,0-0.5,0.1l0,0V139.1z M46.7,141v-3.8h8.1v1.1l0,0c0,0-0.3-0.1-0.7-0.1c-0.1,0-0.3,0-0.4,0c-0.3,0-0.5,0.1-0.8,0.1
		h-0.1c-0.4,0-0.8,0.1-1.1,0.1s-0.6,0-0.8,0h-0.2l0,0c-0.2,0-0.3,0-0.5,0h-0.4v1.3H49v0.7h0.9v1.7H49v0.7h0.9v1.7H49v0.7h0.9v1.6
		h0.4c0,0,0.5,0,1.2,0s1.1-0.1,1.6-0.1c0.4,0,0.8-0.1,1.3-0.1c0.2,0,0.3,0.1,0.4,0.2l0.1,0.1v4.2C52.9,150.3,46.7,146.5,46.7,141z
		 M55.6,151.3v-4.2l0.1-0.1c0.1-0.1,0.2-0.2,0.4-0.2c0.5,0,0.9,0,1.3,0.1c0.4,0,0.9,0.1,1.6,0.1c0.6,0,1.2,0,1.2,0h0.3v-1.6h0.9
		v-0.7h-0.9V143h0.9v-0.7h-0.9v-1.7h0.9v-0.7h-0.9v-1.3h-0.4c-0.1,0-0.3,0-0.5,0h-0.1c-0.2,0-0.5,0-0.9,0c-0.3,0-0.7,0-1.1-0.1l0,0
		c-0.2,0-0.5-0.1-0.8-0.1c-0.1,0-0.3,0-0.4,0c-0.4,0-0.7,0.1-0.7,0.1l0,0l0,0v-1.1h8.1v4C63.7,146.5,57.5,150.3,55.6,151.3z
		 M55.2,153.4c-8.2,0-14.8-6.7-14.8-14.8c0-8.2,6.7-14.8,14.8-14.8S70,130.5,70,138.6C70.1,146.8,63.4,153.4,55.2,153.4 M55.2,124.7
		c-7.7,0-13.9,6.2-13.9,13.9s6.2,13.9,13.9,13.9s13.9-6.2,13.9-13.9C69.1,130.9,62.9,124.7,55.2,124.7 M39.8,147.7
		c-0.1-0.1-0.2-0.3-0.3-0.5c-0.3-0.7-0.2-1.4,0.5-1.7c0.7-0.4,1.4-0.1,1.7,0.6c0.1,0.1,0.1,0.3,0.2,0.5l-0.4,0.2
		c0-0.2,0-0.4-0.1-0.5c-0.2-0.4-0.7-0.6-1.1-0.3c-0.4,0.2-0.6,0.7-0.4,1.1c0.1,0.2,0.2,0.4,0.3,0.4L39.8,147.7z M42.8,147.8
		c-0.4-0.6-1.1-0.7-1.7-0.2c-0.6,0.4-0.8,1.1-0.3,1.7c0.4,0.6,1.1,0.7,1.7,0.2C43.1,149.1,43.2,148.4,42.8,147.8 M41.1,149.1
		c-0.3-0.4,0-0.8,0.3-1.1c0.3-0.2,0.8-0.3,1.1,0.1c0.3,0.4,0,0.8-0.3,1.1C41.8,149.4,41.4,149.5,41.1,149.1 M42.1,150.9l0.3,0.3
		l0.7-0.7l0.1,0.1c0.1,0.1,0.1,0.2,0.1,0.4l-0.3,0.7l0.4,0.4l0.4-0.9c0-0.1,0.1-0.3,0-0.4l0,0c0.2,0.2,0.5,0.2,0.8,0
		c0.5-0.5,0-0.9-0.3-1.3l-0.4-0.4L42.1,150.9z M43.9,149.8l0.1,0.1c0.2,0.2,0.3,0.4,0.1,0.6c-0.2,0.2-0.4,0-0.6-0.1l-0.1-0.1
		L43.9,149.8z M43.9,152.7l0.4,0.3l1.1-1.5l0,0l-0.3,2l0.5,0.4L47,152l-0.4-0.3l-1.1,1.5l0,0l0.3-2l-0.5-0.4L43.9,152.7z
		 M46.4,154.4l1.3,0.7l0.2-0.3l-0.8-0.4l0.3-0.6l0.8,0.4l0.2-0.3l-0.8-0.4l0.3-0.5l0.8,0.4l0.2-0.3l-1.3-0.7L46.4,154.4z
		 M48.4,155.4l1.3,0.5l0.1-0.4l-0.9-0.3l0.7-1.9l-0.5-0.2L48.4,155.4z M50.4,156.1l1.4,0.3l0.1-0.4l-0.9-0.2l0.5-2l-0.5-0.1
		L50.4,156.1z M53.7,155.8c0,0.6,0.3,0.9,1,1c0.6,0,1-0.2,1-0.9l0.1-1.5h-0.5l-0.1,1.4c0,0.4-0.2,0.7-0.5,0.7
		c-0.4,0-0.5-0.3-0.5-0.7l0.1-1.4h-0.5L53.7,155.8z M56.6,156.7l0.5-0.1l-0.2-1.8l0,0l1.2,1.7l0.6-0.1l-0.3-2.4l-0.5,0.1l0.2,1.8
		l0,0l-1.1-1.7l-0.6,0.1L56.6,156.7z M59.4,156.3l0.5-0.1l-0.6-2.3l-0.5,0.1L59.4,156.3z M61.3,155.7l0.6-0.2l-0.1-2.6l-0.5,0.2
		l0.1,2l0,0l-1.2-1.6l-0.5,0.2L61.3,155.7z M63.3,154.9l1.3-0.7l-0.2-0.3l-0.8,0.5l-0.3-0.6l0.8-0.4l-0.2-0.3l-0.8,0.4l-0.3-0.5
		l0.8-0.5l-0.2-0.3l-1.3,0.7L63.3,154.9z M65.2,153.8l0.4-0.3l-0.6-0.8l0.1-0.1c0.2-0.1,0.3-0.1,0.4,0l0.7,0.4l0.4-0.3l-0.9-0.5
		c-0.1-0.1-0.2-0.1-0.4,0l0,0c0.2-0.2,0.2-0.5,0.1-0.7c-0.4-0.5-0.9-0.2-1.3,0.1l-0.4,0.3L65.2,153.8z M64.4,151.8l0.1-0.1
		c0.2-0.1,0.4-0.3,0.6-0.1s0,0.4-0.2,0.6l-0.1,0.1L64.4,151.8z M66.6,149.5c-0.2,0.1-0.3,0.2-0.5,0.3c-0.3,0.3-0.5,0.7-0.1,1.1
		c0.6,0.6,1.2-0.3,1.5,0c0.2,0.2,0,0.4-0.1,0.5s-0.3,0.2-0.5,0.3l0.3,0.3c0.2-0.1,0.3-0.2,0.5-0.4c0.4-0.3,0.5-0.8,0.1-1.2
		c-0.6-0.6-1.2,0.3-1.5,0c-0.2-0.2-0.1-0.4,0-0.5s0.3-0.2,0.4-0.3L66.6,149.5z M68.8,150.6l0.3-0.4l-1.8-1.6L67,149L68.8,150.6z
		 M69.8,149.3l0.3-0.4l-1.7-1.2l0.4-0.6l-0.3-0.2l-1.1,1.5l0.3,0.2l0.4-0.6L69.8,149.3z M71.2,147.1l0.2-0.4l-0.9-0.4l-0.9-1.4
		l-0.2,0.5l0.6,1l-1.2,0.1l-0.3,0.5l1.7-0.1L71.2,147.1z M40.2,142.8l-0.1-0.6H38l0,0l1.9-0.8l-0.1-0.6l-2.6-0.1l0.1,0.5l2.1,0.1
		l0,0l-1.9,0.8l0.1,0.7h2.1l0,0l-1.9,0.9l0.1,0.5L40.2,142.8z M39.6,139.7v-1.5h-0.4v1h-0.7v-0.9h-0.4v0.9h-0.6v-1h-0.4v1.5H39.6z
		 M37.1,137.6l2.5,0.2v-0.5l-2.5-0.2V137.6z M39.7,136.8l0.2-1.5l-0.4-0.1l-0.2,1l-2.1-0.3l-0.1,0.5L39.7,136.8z M40,135l0.4-1.4
		l-0.4-0.1l-0.3,0.9l-2-0.6l-0.1,0.5L40,135z M41.3,130.6c0,0.1-0.1,0.4-0.2,0.5c-0.2,0.5-0.7,0.6-1.2,0.4c-0.5-0.2-0.7-0.7-0.4-1.2
		c0.1-0.2,0.2-0.3,0.4-0.4l-0.4-0.2c-0.1,0.1-0.3,0.3-0.3,0.5c-0.4,0.8-0.2,1.4,0.6,1.8c0.8,0.4,1.4,0.1,1.7-0.7
		c0.1-0.2,0.1-0.4,0.2-0.5L41.3,130.6z M40.5,128c-0.5,0.6-0.3,1.3,0.3,1.8c0.6,0.4,1.3,0.4,1.8-0.2c0.5-0.6,0.3-1.3-0.3-1.8
		C41.6,127.4,40.9,127.4,40.5,128 M42.3,129.3c-0.3,0.4-0.8,0.3-1.2,0s-0.6-0.7-0.3-1.1c0.3-0.4,0.8-0.3,1.1-0.1
		C42.3,128.5,42.6,128.9,42.3,129.3 M43.5,128.2l0.4-0.4l-0.7-0.7l0.1-0.1c0.2-0.2,0.2-0.1,0.4-0.1l0.8,0.3l0.4-0.4l-1-0.4
		c-0.1,0-0.3-0.1-0.4,0l0,0c0.2-0.3,0.2-0.6,0-0.8c-0.5-0.5-0.9,0-1.3,0.4l-0.4,0.4L43.5,128.2z M42.4,126.4l0.1-0.1
		c0.2-0.2,0.4-0.4,0.6-0.1c0.2,0.2,0,0.4-0.1,0.6l-0.1,0.1L42.4,126.4z M45.1,126.7l0.4-0.3l-1.1-1.5l0,0l1.9,0.9l0.5-0.4l-1.5-2
		l-0.4,0.3l1.1,1.5l0,0l-1.9-0.9l-0.5,0.4L45.1,126.7z M47.2,125.2l1.3-0.7l-0.2-0.3l-0.9,0.5l-0.3-0.6l0.8-0.4l-0.2-0.3l-0.8,0.4
		l-0.3-0.5l0.9-0.5l-0.2-0.3l-1.3,0.7L47.2,125.2z M49,124.3l1.4-0.5l-0.1-0.4l-0.9,0.4l-0.8-2l-0.5,0.2L49,124.3z M50.7,123.7
		l1.4-0.4l-0.1-0.4l-0.9,0.2l-0.5-2l-0.5,0.1L50.7,123.7z M53.4,123.1h0.5l-0.1-2.1l0,0l0.7,2.1H55l0.6-2.1l0,0l0.1,2.1h0.5
		l-0.1-2.5h-0.8l-0.5,1.9l0,0l-0.6-1.9h-0.8V123.1z M56.8,123.1l1.5,0.2l0.1-0.4l-1-0.1l0.1-0.7l0.9,0.1l0.1-0.4l-0.9-0.1l0.1-0.6
		l1,0.1l0.1-0.4l-1.5-0.2L56.8,123.1z M58.7,123.4l0.7,0.2c0.7,0.2,1.5,0.2,1.7-0.8c0.3-1-0.3-1.4-1-1.6l-0.7-0.2L58.7,123.4z
		 M59.8,121.5l0.3,0.1c0.4,0.1,0.7,0.5,0.5,1.1c-0.2,0.5-0.6,0.7-1,0.6l-0.3-0.1L59.8,121.5z M61.1,124.2l0.5,0.2l1-2.3l-0.5-0.2
		L61.1,124.2z M63.9,125.1c-0.1,0-0.4-0.1-0.5-0.2c-0.5-0.3-0.6-0.8-0.3-1.2c0.3-0.5,0.7-0.6,1.2-0.4c0.2,0.1,0.3,0.2,0.4,0.4
		l0.2-0.4c-0.1-0.2-0.3-0.3-0.4-0.4c-0.7-0.4-1.4-0.2-1.9,0.5c-0.4,0.7-0.1,1.4,0.6,1.8c0.2,0.1,0.4,0.2,0.5,0.2L63.9,125.1z
		 M63.8,125.5l0.4,0.3l0.5-0.3l0.8,0.6l-0.2,0.6l0.4,0.3l0.8-2.6l-0.4-0.3L63.8,125.5z M65.6,125.7l-0.6-0.4l0.9-0.6l0,0L65.6,125.7
		z M66,127.3l1,1.1l0.3-0.3l-0.7-0.7l1.5-1.5l-0.4-0.4L66,127.3z M69.2,130.6c-0.1-0.1-0.3-0.2-0.4-0.4c-0.3-0.4-0.1-0.9,0.3-1.2
		s0.9-0.2,1.2,0.2c0.1,0.1,0.2,0.3,0.2,0.5l0.4-0.2c0-0.2-0.1-0.4-0.2-0.5c-0.5-0.7-1.2-0.9-1.9-0.4c-0.7,0.5-0.7,1.2-0.3,1.8
		c0.1,0.2,0.2,0.3,0.4,0.4L69.2,130.6z M71.8,131.2c-0.3-0.7-1-0.9-1.7-0.6c-0.7,0.3-1,0.9-0.7,1.7c0.3,0.7,1,0.9,1.7,0.6
		C71.8,132.5,72.1,131.9,71.8,131.2 M69.8,132.1c-0.2-0.5,0.1-0.8,0.5-1s0.9-0.2,1.1,0.3s-0.1,0.8-0.5,1
		C70.5,132.5,70,132.5,69.8,132.1 M70.1,133.8l0.4,1.4l0.4-0.1l-0.3-0.9l2-0.6l-0.1-0.5L70.1,133.8z M70.5,135.5l0.2,1.5l0.4-0.1
		l-0.2-1l2.1-0.3l-0.1-0.5L70.5,135.5z M70.8,137.3l0.1,1.5h0.4v-1H72v0.9h0.4v-0.9H73v1h0.4l-0.1-1.5H70.8z M73.1,141.5
		c0.1-0.2,0.1-0.4,0.2-0.7c0.1-0.8-0.3-1.4-1.2-1.5c-0.8-0.1-1.3,0.4-1.4,1.2c0,0.3,0,0.5,0,0.8l1.3,0.1l0.1-1h-0.4l-0.1,0.5
		l-0.7-0.1c0-0.1,0-0.2,0-0.3c0.1-0.5,0.5-0.8,1-0.8c0.5,0.1,0.9,0.4,0.8,1c0,0.2-0.1,0.4-0.2,0.6L73.1,141.5z M70.5,141.8l-0.4,1.4
		l0.4,0.1l0.2-1l0.7,0.2l-0.2,0.9l0.4,0.1l0.2-0.9l0.6,0.2l-0.2,0.9l0.4,0.1l0.4-1.4L70.5,141.8z M55.2,158.5
		c-11,0-19.9-8.9-19.9-19.9s8.9-19.9,19.9-19.9s19.9,8.9,19.9,19.9C75.1,149.6,66.2,158.5,55.2,158.5z M55.2,119.6
		c-10.5,0-19,8.5-19,19s8.5,19,19,19s19-8.5,19-19S65.7,119.6,55.2,119.6z"/>
</g>
<g>
	<path class="st0" d="M15.1,143l-0.1,0.5c0,0.1,0,0.1-0.1,0.1h-1c-0.1,0-0.1,0-0.1-0.1l-0.8-2.3H8.1l-0.9,2.3c0,0,0,0.1-0.1,0.1h-1
		c-0.1,0-0.1,0-0.1-0.1V143l3.8-9.8c0-0.1,0-0.1,0.1-0.1h1.5c0.1,0,0.1,0,0.1,0.1L15.1,143z M12.5,140.1l-2-5.4l-2.1,5.4H12.5z"/>
	<path class="st0" d="M17.3,143.5v-9.2h-3.1c-0.1,0-0.1,0-0.1-0.1v-1c0-0.1,0-0.1,0.1-0.1h7.5c0.1,0,0.1,0,0.1,0.1v1
		c0,0.1,0,0.1-0.1,0.1h-3.1v9.2c0,0.1,0,0.1-0.1,0.1L17.3,143.5C17.3,143.6,17.3,143.6,17.3,143.5z"/>
</g>
</svg>
